<svg xmlns="http://www.w3.org/2000/svg" viewBox="0 0 24 24" fill="currentColor"><path d="M15.337 23.979c-.176 0-.353-.017-.529-.052-.848-.174-1.37-.771-1.587-1.487l-2.377-8.405H7.493l-1.802 6.613c-.132.484-.484.852-.971.971-.486.119-.997-.017-1.376-.366L0 17.969l7.609-6.676c.661-.581 1.578-.756 2.395-.456 0 0 .754.308 1.876.308 1.05 0 1.802-.308 1.802-.308.817-.3 1.734-.125 2.395.456L23.979 19.24c-.379.349-.89.485-1.376.366a1.26 1.26 0 0 1-.971-.971l-1.802-6.613h-5.351l-2.377 8.405c-.217.716-.739 1.313-1.587 1.487a1.67 1.67 0 0 1-.529.052z"/></svg>
